<svg xmlns="http://www.w3.org/2000/svg" width="132" height="41" fill="none" viewBox="0 0 132 41"><path fill="#fff" d="M22.726 40.388c-2.853-.009-4.888-1.961-5.362-4.989h-.322c-.874 3.67-4 5.605-8.301 5.592-5.65-.022-8.758-3.381-8.74-8.3.02-5.999 4.656-8.847 12.132-8.82l4.466.017.004-1.783c.009-2.756-1.33-4.49-4.666-4.5-3.175-.012-4.844 1.604-6.088 3.33L1.13 16.7c2.27-3.342 5.505-5.386 11.42-5.364 7.961.026 12.036 3.717 12.01 10.415l-.044 12.428 2.636.009-.022 6.212-4.405-.013zm-6.158-8.61l.013-3.351-3.87-.013c-3.066-.01-4.683 1.118-4.692 3.171l-.004.809c-.01 2.053 1.335 3.031 3.7 3.04 2.635.009 4.845-1.066 4.853-3.656zM34.945 8.335c2.291 0 4.148-1.866 4.148-4.167C39.093 1.866 37.236 0 34.945 0c-2.291 0-4.149 1.866-4.149 4.168 0 2.301 1.858 4.167 4.149 4.167zM30.966 11.988h7.962v28.37h-7.962v-28.37zM69.677 40.358l-9.249-28.37h7.854l6.131 20.397h.43l6.023-20.397h7.532l-9.254 28.37h-9.467zM131.513 18.204v-6.216h-5.592V4.42h-7.963v27.667c0 5.404 2.905 8.265 8.393 8.265h4.731v-6.212h-5.161V18.2h5.592v.004zM114.437 25.819c0-7.907-3.436-14.482-12.794-14.482-8.497 0-13.233 5.836-13.233 14.805C88.41 35.22 93.307 41 101.965 41c5.162 0 9.306-1.782 11.832-4.7l-4.366-4.658c-2.535 2.6-6.744 3.342-9.367 2.263-2.848-1.175-4.14-3.267-4.13-5.412h18.498v-2.674h.005zM95.929 23.94c0-2.232 1.23-6.714 5.875-6.714 3.848 0 5.723 3.254 5.723 6.71l-11.598.004z"></path><path fill="#fff" d="M60.428 11.988h-2.666c-4.41 0-5.87 3.027-6.514 6.16h-.27v-6.16H43.02v28.37h7.963V23.77c0-3.294 2.26-4.325 6.883-4.325h.392l2.17-7.457z"></path></svg>
