<?xml version="1.0" standalone="no"?>
<!DOCTYPE svg PUBLIC "-//W3C//DTD SVG 20010904//EN"
 "http://www.w3.org/TR/2001/REC-SVG-20010904/DTD/svg10.dtd">
<svg version="1.0" xmlns="http://www.w3.org/2000/svg"
 width="512.000000pt" height="250.000000pt" viewBox="0 0 512.000000 250.000000"
 preserveAspectRatio="xMidYMid meet">

<g transform="translate(0.000000,250.000000) scale(0.100000,-0.100000)"
fill="#000000" stroke="none">
<path d="M715 1846 c-187 -88 -342 -161 -345 -163 -3 -3 49 -755 54 -759 0 -1
144 -96 319 -213 l317 -211 317 212 318 211 -41 14 c-98 33 -168 131 -167 234
2 122 73 203 218 246 l30 8 9 124 c5 69 5 126 0 131 -8 8 -520 252 -639 305
l-50 22 -340 -161z m484 -147 c164 -26 254 -114 253 -246 -1 -96 -61 -193
-170 -270 -73 -53 -172 -96 -259 -114 l-61 -13 -17 -81 c-10 -45 -16 -100 -13
-123 4 -50 -7 -50 -41 -1 -21 31 -23 41 -18 121 l6 88 -37 10 c-55 14 -124 62
-146 101 -19 34 -19 34 22 -8 37 -38 113 -73 158 -73 7 0 22 33 34 73 12 39
50 155 85 256 35 102 62 188 59 192 -10 16 -174 -21 -238 -53 -23 -11 -50 -28
-61 -37 -20 -16 -20 -16 -1 7 11 12 14 22 8 22 -6 0 -27 -19 -47 -42 -35 -41
-37 -45 -33 -107 4 -55 8 -67 32 -87 15 -13 22 -24 16 -24 -6 0 -25 13 -41 29
-25 26 -29 37 -29 87 0 43 6 68 25 100 48 82 191 161 341 188 100 18 97 18
173 5z"/>
<path d="M942 1625 c-66 -14 -179 -61 -170 -71 3 -2 21 4 39 15 50 29 139 52
237 60 84 8 85 8 22 9 -36 0 -93 -6 -128 -13z"/>
<path d="M1172 1587 c-24 -29 -197 -475 -188 -484 2 -2 28 6 59 17 118 44 247
153 287 243 11 23 20 63 20 88 0 42 -4 50 -41 84 -37 33 -94 65 -117 65 -5 0
-14 -6 -20 -13z"/>
<path d="M2090 1280 l0 -350 45 0 45 0 0 350 0 350 -45 0 -45 0 0 -350z"/>
<path d="M3140 1478 l0 -152 -32 31 c-43 41 -76 53 -146 53 -97 -1 -183 -56
-223 -145 -22 -48 -25 -142 -6 -188 62 -146 263 -205 367 -107 18 17 34 30 36
30 2 0 4 -16 4 -35 0 -34 1 -35 40 -35 l40 0 0 350 0 350 -40 0 -40 0 0 -152z
m-73 -177 c51 -37 77 -98 68 -159 -8 -53 -60 -116 -112 -133 -72 -23 -164 14
-199 83 -18 35 -20 101 -5 138 40 96 164 132 248 71z"/>
<path d="M3870 1280 l0 -350 45 0 45 0 0 350 0 350 -45 0 -45 0 0 -350z"/>
<path d="M4077 1502 c-20 -22 -22 -63 -5 -80 7 -7 26 -12 43 -12 59 0 87 63
43 94 -30 21 -61 20 -81 -2z"/>
<path d="M1738 1373 c-3 -34 -6 -38 -38 -44 -45 -10 -106 -75 -115 -123 -4
-20 -4 -52 -1 -72 8 -38 65 -109 96 -117 23 -6 27 9 35 153 9 156 10 160 49
160 68 0 145 -85 146 -159 0 -83 -70 -159 -155 -169 -45 -5 -45 -5 -45 -43 0
-37 1 -39 33 -39 95 0 190 59 232 145 27 55 26 156 -2 210 -39 74 -128 134
-200 135 -30 0 -32 -3 -35 -37z"/>
<path d="M3429 1382 c-181 -94 -177 -337 6 -435 53 -29 173 -30 225 -3 41 21
110 85 110 101 0 7 -16 17 -37 23 -33 10 -39 9 -68 -16 -95 -84 -217 -59 -267
55 -10 24 -16 48 -13 53 4 6 87 10 211 10 l205 0 -7 38 c-22 128 -113 202
-248 202 -50 0 -75 -6 -117 -28z m195 -62 c28 -10 66 -45 66 -60 0 -6 -55 -10
-145 -10 -144 0 -146 0 -135 21 28 51 141 77 214 49z"/>
<path d="M4406 1395 c-48 -17 -110 -76 -136 -130 -43 -89 -13 -218 66 -283
102 -84 252 -80 343 8 22 22 41 44 41 50 0 5 -17 14 -38 21 -36 10 -41 9 -67
-15 -106 -98 -275 -21 -275 125 0 87 74 159 162 159 54 0 80 -10 119 -47 25
-23 28 -24 63 -9 20 8 36 19 36 24 0 16 -66 71 -110 91 -53 24 -146 27 -204 6z"/>
<path d="M2250 1370 c0 -5 36 -84 79 -176 l79 -166 -43 -92 c-24 -52 -50 -107
-59 -125 l-17 -31 49 0 48 0 139 293 c76 160 140 295 142 300 2 4 -16 7 -41 7
l-46 0 -60 -120 c-33 -66 -62 -120 -64 -120 -2 0 -29 54 -61 120 l-59 120 -43
0 c-24 0 -43 -4 -43 -10z"/>
<path d="M4080 1155 l0 -225 40 0 40 0 0 225 0 225 -40 0 -40 0 0 -225z"/>
</g>
</svg>
